<?xml version="1.0" encoding="UTF-8"?>
<svg id="Layer_2" data-name="Layer 2" xmlns="http://www.w3.org/2000/svg" viewBox="0 0 316.24 34.4">
  <defs>
    <style>
      .cls-1 {
        fill: #00945f;
      }
    </style>
  </defs>
  <g id="Icons">
    <g>
      <g>
        <path class="cls-1" d="M32.86,33.6c-1.05,1.05-2.78,1.07-3.84,0l-6.27-6.28,.04,4.36c.04,1.7-1.16,2.69-2.65,2.69s-2.73-1.2-2.73-2.69v-5.43c0-1.19,.73-2.14,1.7-2.53,1.8-.7,3.2-2.1,3.88-3.88,.37-.96,1.33-1.7,2.53-1.7h5.43c1.49,0,2.69,1.2,2.69,2.73s-.99,2.69-2.69,2.65l-4.36-.04,6.27,6.27c1.07,1.07,1.05,2.79,0,3.84Z"/>
        <path class="cls-1" d="M32.86,1.54c1.05,1.05,1.07,2.78,0,3.84l-6.27,6.27,4.36-.04c1.7-.04,2.69,1.15,2.69,2.65s-1.2,2.73-2.69,2.73h-5.43c-1.19,0-2.15-.73-2.53-1.7-.7-1.8-2.1-3.2-3.88-3.88-.96-.37-1.7-1.33-1.7-2.53V3.45c0-1.49,1.19-2.69,2.73-2.69s2.69,.99,2.65,2.69l-.04,4.36L29.02,1.54c1.07-1.07,2.79-1.05,3.84,0Z"/>
        <path class="cls-1" d="M.79,1.54C1.84,.49,3.57,.47,4.64,1.54l6.27,6.28-.04-4.36c-.04-1.7,1.15-2.69,2.65-2.69s2.73,1.2,2.73,2.69v5.43c0,1.19-.73,2.15-1.7,2.53-1.8,.7-3.2,2.1-3.88,3.88-.37,.96-1.33,1.7-2.53,1.7H2.71C1.22,16.99,.02,15.8,.02,14.26s.99-2.69,2.69-2.65l4.36,.04L.79,5.38c-1.07-1.07-1.05-2.8,0-3.84Z"/>
        <path class="cls-1" d="M.79,33.6c-1.05-1.05-1.07-2.78,0-3.84l6.28-6.27-4.36,.04c-1.7,.04-2.69-1.15-2.69-2.65s1.2-2.73,2.69-2.73h5.43c1.19,0,2.15,.73,2.53,1.7,.7,1.8,2.1,3.2,3.88,3.88,.96,.37,1.7,1.33,1.7,2.52v5.43c0,1.49-1.19,2.69-2.73,2.69s-2.69-.99-2.65-2.69l.04-4.36-6.27,6.28c-1.07,1.07-2.8,1.05-3.84,0Z"/>
      </g>
      <g>
        <path class="cls-1" d="M314.44,15.94c-.79,.79-1.73,1.19-2.83,1.19s-2.05-.4-2.83-1.19c-.78-.79-1.18-1.74-1.18-2.85s.39-2.06,1.18-2.85c.78-.79,1.73-1.19,2.83-1.19s2.05,.4,2.83,1.19c.78,.79,1.17,1.74,1.17,2.85s-.39,2.06-1.17,2.85Zm.44-6.12c-.91-.9-2-1.36-3.27-1.36s-2.37,.45-3.27,1.36c-.9,.9-1.35,1.99-1.35,3.27s.45,2.37,1.35,3.27c.91,.9,2,1.35,3.27,1.35s2.36-.45,3.27-1.35c.9-.9,1.36-1.99,1.36-3.27s-.45-2.37-1.36-3.27Zm-2.34,3.48c.35-.14,.63-.32,.84-.55,.2-.23,.3-.52,.3-.86,0-.26-.05-.48-.16-.65-.1-.17-.27-.32-.49-.44-.21-.11-.42-.18-.64-.21-.22-.03-.49-.04-.83-.04h-1.67v4.89h.88v-1.89h.86l1.76,1.89h1.2l-2.05-2.13Zm.11-.96c-.04,.11-.12,.2-.23,.29-.1,.08-.23,.14-.4,.17-.16,.03-.35,.05-.57,.05h-.68v-1.65h.8c.19,0,.35,0,.47,.03,.13,.02,.25,.06,.35,.12,.12,.06,.2,.15,.25,.25,.05,.1,.08,.21,.08,.34,0,.16-.02,.29-.07,.4Z"/>
        <g>
          <g>
            <path class="cls-1" d="M56.47,33.61c-10.73,0-14.19-7.14-14.19-14.78,0-9.73,5.09-16.55,15.37-16.55,2.18,0,4.5,.27,6.5,.82l-.64,5.37c-2-.59-4.09-.91-6.18-.91-5.73,0-8.55,4.32-8.55,10.28,0,6.69,2.78,10.42,8.96,10.42,1.87,0,4.37-.55,5.96-1.27l.68,5.27c-2.27,.82-5.05,1.36-7.91,1.36Z"/>
            <path class="cls-1" d="M72.34,8.71c-1.92,0-3.45-1.53-3.45-3.41s1.53-3.36,3.45-3.36,3.5,1.48,3.5,3.36-1.57,3.41-3.5,3.41Zm-2.91,24.49V10.6h5.82v22.6h-5.82Z"/>
            <path class="cls-1" d="M89.78,33.65c-5,0-6.55-1.82-6.55-7.1V15.1h-3.91v-4.5h3.87V3.64l5.82-1.55V10.6h5.5v4.5h-5.5v9.92c0,2.91,.68,3.73,2.68,3.73,.95,0,2-.14,2.82-.36v4.68c-1.46,.37-3.14,.59-4.73,.59Z"/>
            <path class="cls-1" d="M102.82,8.71c-1.92,0-3.45-1.53-3.45-3.41s1.53-3.36,3.45-3.36,3.5,1.48,3.5,3.36-1.57,3.41-3.5,3.41Zm-2.91,24.49V10.6h5.82v22.6h-5.82Z"/>
            <path class="cls-1" d="M110.91,33.2v-4.14l9.1-13.37c-.86,.05-2.64,.09-4.82,.09h-4v-5.18h15.82v4.14l-8.91,13.19c.95-.05,3.45-.05,5.14-.05h3.96v5.32h-16.28Z"/>
            <path class="cls-1" d="M150.8,22.83h-14.01c-.05,4.23,2.05,6.28,6.23,6.28,2.23,0,4.64-.5,6.6-1.41l.55,4.5c-2.41,.96-5.28,1.46-8.09,1.46-7.19,0-11.19-3.59-11.19-11.55,0-6.91,3.82-12.01,10.6-12.01s9.51,4.5,9.51,10.1c0,.77-.05,1.68-.18,2.64Zm-9.51-8.46c-2.41,0-4.09,1.77-4.41,4.5h8.32c.09-2.82-1.45-4.5-3.91-4.5Z"/>
            <path class="cls-1" d="M169.72,33.2v-14.46c0-2.36-.64-3.77-2.77-3.77-2.96,0-5.27,3.36-5.27,7.32v10.91h-5.82V10.6h5.5c0,1.04-.09,2.82-.32,4l.04,.04c1.37-2.68,4.01-4.55,7.69-4.55,5.1,0,6.73,3.27,6.73,7.23v15.87h-5.78Z"/>
            <path class="cls-1" d="M185.72,33.65c-1.63,0-3.27-.18-4.73-.41l.13-4.77c1.41,.36,3.14,.68,4.87,.68,2.23,0,3.69-.91,3.69-2.41,0-4-9.14-1.73-9.14-9.41,0-3.96,3.23-7.23,9.59-7.23,1.32,0,2.78,.18,4.14,.41l-.18,4.59c-1.27-.36-2.77-.59-4.18-.59-2.27,0-3.36,.91-3.36,2.32,0,3.68,9.28,2.05,9.28,9.37,0,4.46-3.91,7.46-10.1,7.46Z"/>
          </g>
          <g>
            <path class="cls-1" d="M217.19,33.29c-1.86,0-5.09-.09-8.96-.09V2.55c2.59-.14,6.59-.23,10.37-.23,6.64,0,10.32,2.68,10.32,7.59,0,3.05-1.96,5.73-4.87,6.87v.09c3.64,.77,5.46,3.78,5.46,6.87,0,4.46-3.05,9.55-12.33,9.55Zm.41-26.19c-1.23,0-2.41,.04-3.46,.09V15.19c.73,.04,1.45,.04,2.41,.04,4.05,0,6.14-1.64,6.14-4.37,0-2.27-1.37-3.77-5.09-3.77Zm-.87,12.55c-.45,0-1.96,0-2.59,.05v8.59c.73,.09,1.86,.18,3.23,.18,3.87,0,5.82-1.82,5.82-4.59,0-3-2.59-4.23-6.46-4.23Z"/>
            <path class="cls-1" d="M246.21,33.2c0-1.32,.05-2.64,.23-3.82l-.05-.04c-1.09,2.55-3.87,4.32-7.23,4.32-4.09,0-6.46-2.32-6.46-5.96,0-5.41,5.37-8.28,13.05-8.28v-1.23c0-2.36-1.14-3.59-4.41-3.59-2.05,0-4.78,.68-6.68,1.77l-.5-4.87c2.27-.82,5.18-1.41,8.1-1.41,7.28,0,9.32,2.96,9.32,7.87v9.41c0,1.82,.04,3.96,.13,5.82h-5.5Zm-.45-10c-6.14,0-7.5,1.77-7.5,3.59,0,1.46,1,2.41,2.68,2.41,2.87,0,4.82-2.73,4.82-5.46v-.55Z"/>
            <path class="cls-1" d="M271.36,33.2v-14.46c0-2.36-.64-3.77-2.78-3.77-2.96,0-5.27,3.36-5.27,7.32v10.91h-5.82V10.6h5.5c0,1.04-.09,2.82-.32,4l.05,.04c1.36-2.68,4-4.55,7.68-4.55,5.1,0,6.73,3.27,6.73,7.23v15.87h-5.78Z"/>
            <path class="cls-1" d="M295.82,33.2l-7-11.19v11.19h-5.82V0h5.82V20.01l6.6-9.41h7.09l-7.91,10.32,8.51,12.28h-7.28Z"/>
          </g>
        </g>
      </g>
    </g>
  </g>
</svg>