<?xml version="1.0" encoding="UTF-8"?>
<svg id="Layer_2" data-name="Layer 2" xmlns="http://www.w3.org/2000/svg" viewBox="0 0 33.65 33.65">
  <defs>
    <style>
      .cls-1 {
        fill: #00945f;
      }
    </style>
  </defs>
  <g id="Icons">
    <g>
      <path class="cls-1" d="M32.86,32.86c-1.05,1.05-2.78,1.07-3.84,0l-6.27-6.28,.04,4.36c.04,1.7-1.16,2.69-2.65,2.69s-2.73-1.2-2.73-2.69v-5.43c0-1.19,.73-2.14,1.7-2.53,1.8-.7,3.2-2.1,3.88-3.88,.37-.96,1.33-1.7,2.53-1.7h5.43c1.49,0,2.69,1.2,2.69,2.73s-.99,2.69-2.69,2.65l-4.36-.04,6.27,6.27c1.07,1.07,1.05,2.79,0,3.84Z"/>
      <path class="cls-1" d="M32.86,.79c1.05,1.05,1.07,2.78,0,3.84l-6.27,6.27,4.36-.04c1.7-.04,2.69,1.15,2.69,2.65s-1.2,2.73-2.69,2.73h-5.43c-1.19,0-2.15-.73-2.53-1.7-.7-1.8-2.1-3.2-3.88-3.88-.96-.37-1.7-1.33-1.7-2.53V2.71C17.41,1.22,18.6,.02,20.14,.02s2.69,.99,2.65,2.69l-.04,4.36L29.02,.79c1.07-1.07,2.79-1.05,3.84,0Z"/>
      <path class="cls-1" d="M.79,.79C1.84-.25,3.57-.28,4.64,.79l6.27,6.28-.04-4.36C10.83,1.01,12.02,.02,13.52,.02s2.73,1.2,2.73,2.69v5.43c0,1.19-.73,2.15-1.7,2.53-1.8,.7-3.2,2.1-3.88,3.88-.37,.96-1.33,1.7-2.53,1.7H2.71C1.22,16.25,.02,15.05,.02,13.52s.99-2.69,2.69-2.65l4.36,.04L.79,4.64c-1.07-1.07-1.05-2.8,0-3.84Z"/>
      <path class="cls-1" d="M.79,32.86c-1.05-1.05-1.07-2.78,0-3.84l6.28-6.27-4.36,.04c-1.7,.04-2.69-1.15-2.69-2.65s1.2-2.73,2.69-2.73h5.43c1.19,0,2.15,.73,2.53,1.7,.7,1.8,2.1,3.2,3.88,3.88,.96,.37,1.7,1.33,1.7,2.52v5.43c0,1.49-1.19,2.69-2.73,2.69s-2.69-.99-2.65-2.69l.04-4.36-6.27,6.28c-1.07,1.07-2.8,1.05-3.84,0Z"/>
    </g>
  </g>
</svg>