<?xml version="1.0" encoding="UTF-8"?>
<svg width="30px" height="30px" id="Layer_2" data-name="Layer 2" xmlns="http://www.w3.org/2000/svg" viewBox="0 0 48 48">
  <defs>
    <style>
      .cls-1 {
        fill: #fff;
      }

      .cls-2 {
        fill: #2daae1;
      }
    </style>
  </defs>
  <g id="Icons">
    <g>
      <rect class="cls-2" width="48" height="48"/>
      <path class="cls-1" d="M38.17,12.26c-1.19,.71-2.51,1.22-3.91,1.49-1.12-1.2-2.72-1.94-4.49-1.94-3.4,0-6.15,2.76-6.15,6.15,0,.48,.05,.95,.16,1.4-5.12-.26-9.65-2.71-12.69-6.43-.53,.91-.83,1.96-.83,3.09,0,2.13,1.09,4.02,2.74,5.12-1.01-.03-1.96-.31-2.79-.77v.08c0,2.98,2.12,5.47,4.94,6.04-.52,.14-1.06,.21-1.62,.21-.4,0-.78-.04-1.16-.11,.78,2.44,3.06,4.22,5.75,4.27-2.11,1.65-4.76,2.63-7.64,2.63-.5,0-.99-.03-1.47-.09,2.72,1.75,5.96,2.77,9.43,2.77,11.32,0,17.51-9.38,17.51-17.51,0-.27,0-.53-.02-.8,1.2-.87,2.25-1.95,3.07-3.19-1.1,.49-2.29,.82-3.54,.97,1.27-.76,2.25-1.97,2.71-3.4Z"/>
    </g>
  </g>
</svg>