<?xml version="1.0" encoding="UTF-8"?>
<svg width="30px" height="30px" id="Layer_2" data-name="Layer 2" xmlns="http://www.w3.org/2000/svg" viewBox="0 0 48 48">
  <defs>
    <style>
      .cls-1 {
        fill: #fff;
      }

      .cls-2 {
        fill: #e14e42;
      }
    </style>
  </defs>
  <g id="Icons">
    <g>
      <rect class="cls-2" width="48" height="48"/>
      <g>
        <path class="cls-1" d="M33.52,23.3H14.48c-3.03,0-5.48,2.46-5.48,5.48v4.4c0,3.03,2.45,5.48,5.48,5.48h19.04c3.03,0,5.48-2.46,5.48-5.48v-4.4c0-3.03-2.45-5.48-5.48-5.48Zm-15.04,3.43h-1.77v8.79h-1.71v-8.79h-1.77v-1.5h5.25v1.5Zm5,8.79h-1.52v-.83c-.28,.31-.57,.54-.88,.7-.3,.17-.6,.24-.88,.24-.35,0-.61-.11-.79-.34-.18-.23-.27-.56-.27-1.02v-6.35h1.52v5.82c0,.18,.03,.31,.09,.39,.07,.08,.17,.12,.31,.12,.11,0,.25-.05,.42-.16,.17-.11,.33-.24,.47-.41v-5.77h1.52v7.59Zm5.51-1.57c0,.54-.12,.95-.36,1.24-.24,.29-.58,.43-1.03,.43-.3,0-.56-.05-.79-.16-.23-.11-.45-.28-.65-.52v.58h-1.53v-10.29h1.53v3.31c.21-.23,.42-.41,.65-.53,.23-.12,.46-.18,.7-.18,.48,0,.85,.16,1.1,.48,.25,.32,.38,.8,.38,1.42v4.21Zm5.26-2.05h-2.9v1.43c0,.4,.05,.68,.15,.83,.1,.16,.27,.23,.52,.23s.43-.06,.53-.2c.1-.13,.15-.42,.15-.87v-.35h1.56v.39c0,.78-.19,1.36-.57,1.76-.38,.39-.95,.59-1.7,.59-.68,0-1.22-.21-1.61-.63-.39-.41-.59-.99-.59-1.72v-3.41c0-.66,.21-1.2,.65-1.61,.43-.41,.98-.62,1.66-.62s1.23,.19,1.6,.58c.37,.38,.56,.94,.56,1.65v1.94Z"/>
        <path class="cls-1" d="M32.03,29.08c-.24,0-.41,.07-.52,.21-.11,.13-.16,.36-.16,.68v.77h1.34v-.77c0-.32-.05-.55-.16-.68-.1-.14-.27-.21-.51-.21Z"/>
        <path class="cls-1" d="M26.79,29.05c-.11,0-.22,.02-.32,.07-.11,.05-.21,.13-.31,.23v4.73c.12,.12,.24,.22,.36,.27,.12,.05,.24,.08,.37,.08,.19,0,.32-.05,.41-.16,.09-.11,.13-.28,.13-.52v-3.92c0-.26-.05-.45-.16-.58-.11-.13-.27-.2-.47-.2Z"/>
        <polygon class="cls-1" points="14.69 9.33 16.97 16.18 16.97 20.67 18.9 20.67 18.9 15.96 21.14 9.33 19.18 9.33 17.99 13.86 17.87 13.86 16.62 9.33 14.69 9.33"/>
        <path class="cls-1" d="M21.96,12.67c-.46,.38-.69,.9-.69,1.55v4.34c0,.71,.22,1.28,.67,1.7,.45,.42,1.05,.63,1.8,.63s1.38-.2,1.83-.61c.44-.41,.66-.97,.66-1.68v-4.32c0-.64-.23-1.16-.68-1.57-.45-.4-1.03-.61-1.74-.61-.78,0-1.39,.19-1.86,.58Zm2.53,1.48v4.56c0,.22-.07,.4-.21,.53-.14,.13-.32,.19-.55,.19s-.4-.06-.52-.19c-.12-.12-.18-.3-.18-.53v-4.56c0-.18,.07-.33,.19-.44,.13-.11,.3-.17,.51-.17,.23,0,.41,.05,.55,.17,.14,.12,.21,.26,.21,.44Z"/>
        <path class="cls-1" d="M32.5,20.67V12.3h-1.71v6.35c-.16,.18-.33,.33-.53,.45-.2,.12-.35,.18-.48,.18-.16,0-.28-.04-.35-.13-.07-.09-.11-.23-.11-.43v-6.41h-1.71v6.99c0,.5,.1,.87,.3,1.12,.2,.25,.5,.38,.89,.38,.32,0,.65-.09,.99-.27,.34-.18,.67-.44,.98-.78v.93h1.71Z"/>
      </g>
    </g>
  </g>
</svg>